<mxfile host="app.diagrams.net" modified="2024-03-09T22:37:21.530Z" agent="Mozilla/5.0 (Windows NT 10.0; Win64; x64) AppleWebKit/537.36 (KHTML, like Gecko) Chrome/122.0.0.0 Safari/537.36" etag="nr-HvJXmCnSxaf1GLQOX" version="24.0.4" type="device" pages="2">
  <diagram id="prtHgNgQTEPvFCAcTncT" name="Page-1">
    <mxGraphModel dx="1434" dy="784" grid="1" gridSize="10" guides="1" tooltips="1" connect="1" arrows="1" fold="1" page="1" pageScale="1" pageWidth="20000" pageHeight="1920" math="0" shadow="0">
      <root>
        <mxCell id="0" />
        <mxCell id="1" parent="0" />
        <mxCell id="dNxyNK7c78bLwvsdeMH5-11" value="Orgchart" style="swimlane;html=1;startSize=20;horizontal=1;containerType=tree;glass=0;" parent="1" vertex="1">
          <mxGeometry x="2880" y="70" width="710" height="290" as="geometry" />
        </mxCell>
        <UserObject label="%name%&lt;br&gt;&lt;i style=&quot;color: gray&quot;&gt;%position%&lt;/i&gt;&lt;br&gt;&lt;a href=&quot;mailto:%email%&quot;&gt;Email&lt;/a&gt;" name="Tessa Miller" position="CFO" location="Office 1" email="me@example.com" placeholders="1" link="https://www.draw.io" id="dNxyNK7c78bLwvsdeMH5-12">
          <mxCell style="label;image=https://cdn3.iconfinder.com/data/icons/user-avatars-1/512/users-3-128.png;whiteSpace=wrap;html=1;rounded=0;glass=0;treeMoving=1;treeFolding=1;" parent="dNxyNK7c78bLwvsdeMH5-11" vertex="1">
            <mxGeometry x="260" y="50" width="180" height="70" as="geometry" />
          </mxCell>
        </UserObject>
        <mxCell id="dNxyNK7c78bLwvsdeMH5-15" value="" style="endArrow=blockThin;endFill=1;fontSize=11;edgeStyle=elbowEdgeStyle;elbow=vertical;rounded=0;" parent="dNxyNK7c78bLwvsdeMH5-11" source="dNxyNK7c78bLwvsdeMH5-12" target="dNxyNK7c78bLwvsdeMH5-16" edge="1">
          <mxGeometry relative="1" as="geometry" />
        </mxCell>
        <UserObject label="%name%&lt;br&gt;&lt;i style=&quot;color: gray&quot;&gt;%position%&lt;/i&gt;&lt;br&gt;&lt;a href=&quot;mailto:%email%&quot;&gt;Email&lt;/a&gt;" name="Evan Valet" position="HR Director" location="Office 4" email="me@example.com" placeholders="1" link="https://www.draw.io" id="dNxyNK7c78bLwvsdeMH5-16">
          <mxCell style="label;image=https://cdn3.iconfinder.com/data/icons/user-avatars-1/512/users-9-2-128.png;whiteSpace=wrap;html=1;rounded=0;glass=0;treeFolding=1;treeMoving=1;" parent="dNxyNK7c78bLwvsdeMH5-11" vertex="1">
            <mxGeometry x="20" y="180" width="180" height="80" as="geometry" />
          </mxCell>
        </UserObject>
        <mxCell id="dNxyNK7c78bLwvsdeMH5-17" value="" style="endArrow=blockThin;endFill=1;fontSize=11;edgeStyle=elbowEdgeStyle;elbow=vertical;rounded=0;" parent="dNxyNK7c78bLwvsdeMH5-11" source="dNxyNK7c78bLwvsdeMH5-12" target="dNxyNK7c78bLwvsdeMH5-18" edge="1">
          <mxGeometry relative="1" as="geometry" />
        </mxCell>
        <UserObject label="%name%&lt;br&gt;&lt;i style=&quot;color: gray&quot;&gt;%position%&lt;/i&gt;&lt;br&gt;&lt;a href=&quot;mailto:%email%&quot;&gt;Email&lt;/a&gt;" name="Alison Donovan" position="System Admin" location="Office 3" email="me@example.com" placeholders="1" link="https://www.draw.io" id="dNxyNK7c78bLwvsdeMH5-18">
          <mxCell style="label;image=https://cdn3.iconfinder.com/data/icons/user-avatars-1/512/users-2-128.png;whiteSpace=wrap;html=1;rounded=0;glass=0;" parent="dNxyNK7c78bLwvsdeMH5-11" vertex="1">
            <mxGeometry x="280" y="180" width="180" height="80" as="geometry" />
          </mxCell>
        </UserObject>
        <UserObject label="%name%&lt;br&gt;&lt;i style=&quot;color: gray&quot;&gt;%position%&lt;/i&gt;&lt;br&gt;&lt;a href=&quot;mailto:%email%&quot;&gt;Email&lt;/a&gt;" name="Alison Donovan" position="System Admin" location="Office 3" email="me@example.com" placeholders="1" link="https://www.draw.io" id="buaRKzgjF5p2rSsCQyk5-2">
          <mxCell style="label;image=https://cdn3.iconfinder.com/data/icons/user-avatars-1/512/users-2-128.png;whiteSpace=wrap;html=1;rounded=0;glass=0;" vertex="1" parent="dNxyNK7c78bLwvsdeMH5-11">
            <mxGeometry x="520" y="180" width="180" height="80" as="geometry" />
          </mxCell>
        </UserObject>
        <mxCell id="buaRKzgjF5p2rSsCQyk5-1" style="edgeStyle=orthogonalEdgeStyle;rounded=0;orthogonalLoop=1;jettySize=auto;html=1;exitX=0;exitY=0;exitDx=0;exitDy=0;" edge="1" parent="1" source="dNxyNK7c78bLwvsdeMH5-11" target="dNxyNK7c78bLwvsdeMH5-11">
          <mxGeometry relative="1" as="geometry" />
        </mxCell>
        <UserObject label="%name%&lt;br&gt;&lt;i style=&quot;color: gray&quot;&gt;%position%&lt;/i&gt;&lt;br&gt;&lt;a href=&quot;mailto:%email%&quot;&gt;Email&lt;/a&gt;" name="Edward Morrison" position="Brand Manager" location="Office 2" email="me@example.com" placeholders="1" link="https://www.draw.io" id="dNxyNK7c78bLwvsdeMH5-14">
          <mxCell style="label;image=https://cdn3.iconfinder.com/data/icons/user-avatars-1/512/users-10-3-128.png;whiteSpace=wrap;html=1;rounded=0;glass=0;treeFolding=1;treeMoving=1;" parent="1" vertex="1">
            <mxGeometry x="2640" y="250" width="180" height="80" as="geometry" />
          </mxCell>
        </UserObject>
        <mxCell id="dNxyNK7c78bLwvsdeMH5-13" value="" style="endArrow=blockThin;endFill=1;fontSize=11;edgeStyle=elbowEdgeStyle;elbow=vertical;rounded=0;" parent="1" source="dNxyNK7c78bLwvsdeMH5-12" target="dNxyNK7c78bLwvsdeMH5-14" edge="1">
          <mxGeometry relative="1" as="geometry" />
        </mxCell>
      </root>
    </mxGraphModel>
  </diagram>
  <diagram name="Copy of Page-1" id="sxxSmAxKWzO9w7Nn5Qlz">
    <mxGraphModel dx="2074" dy="1103" grid="1" gridSize="10" guides="1" tooltips="1" connect="1" arrows="1" fold="1" page="1" pageScale="1" pageWidth="5000" pageHeight="1920" math="0" shadow="0">
      <root>
        <mxCell id="oDTV-TboAkDGDWzcCkDT-0" />
        <mxCell id="oDTV-TboAkDGDWzcCkDT-1" parent="oDTV-TboAkDGDWzcCkDT-0" />
        <mxCell id="oDTV-TboAkDGDWzcCkDT-2" value="Orgchart" style="swimlane;html=1;startSize=20;horizontal=1;containerType=tree;glass=0;" vertex="1" parent="oDTV-TboAkDGDWzcCkDT-1">
          <mxGeometry x="2880" y="70" width="1250" height="340" as="geometry" />
        </mxCell>
        <UserObject label="CMO&lt;div&gt;&lt;br&gt;&lt;/div&gt;" name="Tessa Miller" position="CFO" location="Office 1" email="me@example.com" placeholders="1" link="https://www.draw.io" id="oDTV-TboAkDGDWzcCkDT-3">
          <mxCell style="label;image=https://cdn3.iconfinder.com/data/icons/user-avatars-1/512/users-3-128.png;whiteSpace=wrap;html=1;rounded=0;glass=0;treeMoving=1;treeFolding=1;" vertex="1" parent="oDTV-TboAkDGDWzcCkDT-2">
            <mxGeometry x="850" y="20" width="180" height="70" as="geometry" />
          </mxCell>
        </UserObject>
        <mxCell id="oDTV-TboAkDGDWzcCkDT-4" value="" style="endArrow=blockThin;endFill=1;fontSize=11;edgeStyle=elbowEdgeStyle;elbow=vertical;rounded=0;" edge="1" parent="oDTV-TboAkDGDWzcCkDT-2" source="oDTV-TboAkDGDWzcCkDT-3" target="oDTV-TboAkDGDWzcCkDT-5">
          <mxGeometry relative="1" as="geometry" />
        </mxCell>
        <UserObject label="Brand Management" name="Evan Valet" position="HR Director" location="Office 4" email="me@example.com" placeholders="1" link="https://www.draw.io" id="oDTV-TboAkDGDWzcCkDT-5">
          <mxCell style="label;image=https://cdn3.iconfinder.com/data/icons/user-avatars-1/512/users-9-2-128.png;whiteSpace=wrap;html=1;rounded=0;glass=0;treeFolding=1;treeMoving=1;" vertex="1" parent="oDTV-TboAkDGDWzcCkDT-2">
            <mxGeometry x="-40" y="175" width="180" height="80" as="geometry" />
          </mxCell>
        </UserObject>
        <mxCell id="oDTV-TboAkDGDWzcCkDT-6" value="" style="endArrow=blockThin;endFill=1;fontSize=11;edgeStyle=elbowEdgeStyle;elbow=vertical;rounded=0;" edge="1" parent="oDTV-TboAkDGDWzcCkDT-2" source="oDTV-TboAkDGDWzcCkDT-3" target="oDTV-TboAkDGDWzcCkDT-7">
          <mxGeometry relative="1" as="geometry" />
        </mxCell>
        <UserObject label="Digital Marketing" name="Alison Donovan" position="System Admin" location="Office 3" email="me@example.com" placeholders="1" link="https://www.draw.io" id="oDTV-TboAkDGDWzcCkDT-7">
          <mxCell style="label;image=https://cdn3.iconfinder.com/data/icons/user-avatars-1/512/users-2-128.png;whiteSpace=wrap;html=1;rounded=0;glass=0;" vertex="1" parent="oDTV-TboAkDGDWzcCkDT-2">
            <mxGeometry x="260" y="175" width="180" height="80" as="geometry" />
          </mxCell>
        </UserObject>
        <mxCell id="_TsJ4yo5myPTsE6mLfSC-11" value="" style="edgeStyle=orthogonalEdgeStyle;rounded=0;orthogonalLoop=1;jettySize=auto;html=1;" edge="1" source="oDTV-TboAkDGDWzcCkDT-3" target="_TsJ4yo5myPTsE6mLfSC-12" parent="oDTV-TboAkDGDWzcCkDT-2">
          <mxGeometry relative="1" as="geometry" />
        </mxCell>
        <UserObject label="&lt;div&gt;PR&amp;nbsp;&lt;/div&gt;" name="Tessa Miller" position="CFO" location="Office 1" email="me@example.com" placeholders="1" link="https://www.draw.io" id="_TsJ4yo5myPTsE6mLfSC-12">
          <mxCell style="label;image=https://cdn3.iconfinder.com/data/icons/user-avatars-1/512/users-3-128.png;whiteSpace=wrap;html=1;rounded=0;glass=0;treeMoving=1;treeFolding=1;" vertex="1" parent="oDTV-TboAkDGDWzcCkDT-2">
            <mxGeometry x="1030" y="185" width="180" height="70" as="geometry" />
          </mxCell>
        </UserObject>
        <UserObject label="&lt;div&gt;Product Marketing&lt;/div&gt;" name="Tessa Miller" position="CFO" location="Office 1" email="me@example.com" placeholders="1" link="https://www.draw.io" id="_TsJ4yo5myPTsE6mLfSC-10">
          <mxCell style="label;image=https://cdn3.iconfinder.com/data/icons/user-avatars-1/512/users-3-128.png;whiteSpace=wrap;html=1;rounded=0;glass=0;treeMoving=1;treeFolding=1;" vertex="1" parent="oDTV-TboAkDGDWzcCkDT-2">
            <mxGeometry x="810" y="185" width="180" height="70" as="geometry" />
          </mxCell>
        </UserObject>
        <mxCell id="_TsJ4yo5myPTsE6mLfSC-9" value="" style="edgeStyle=orthogonalEdgeStyle;rounded=0;orthogonalLoop=1;jettySize=auto;html=1;" edge="1" source="oDTV-TboAkDGDWzcCkDT-3" target="_TsJ4yo5myPTsE6mLfSC-10" parent="oDTV-TboAkDGDWzcCkDT-2">
          <mxGeometry relative="1" as="geometry" />
        </mxCell>
        <UserObject label="Market Research" name="Alison Donovan" position="System Admin" location="Office 3" email="me@example.com" placeholders="1" link="https://www.draw.io" id="oDTV-TboAkDGDWzcCkDT-8">
          <mxCell style="label;image=https://cdn3.iconfinder.com/data/icons/user-avatars-1/512/users-2-128.png;whiteSpace=wrap;html=1;rounded=0;glass=0;" vertex="1" parent="oDTV-TboAkDGDWzcCkDT-2">
            <mxGeometry x="560" y="175" width="180" height="80" as="geometry" />
          </mxCell>
        </UserObject>
        <UserObject label="Customer Experience" name="Edward Morrison" position="Brand Manager" location="Office 2" email="me@example.com" placeholders="1" link="https://www.draw.io" id="oDTV-TboAkDGDWzcCkDT-10">
          <mxCell style="label;image=https://cdn3.iconfinder.com/data/icons/user-avatars-1/512/users-10-3-128.png;whiteSpace=wrap;html=1;rounded=0;glass=0;treeFolding=1;treeMoving=1;" vertex="1" parent="oDTV-TboAkDGDWzcCkDT-1">
            <mxGeometry x="2550" y="245" width="180" height="80" as="geometry" />
          </mxCell>
        </UserObject>
        <mxCell id="oDTV-TboAkDGDWzcCkDT-11" value="" style="endArrow=blockThin;endFill=1;fontSize=11;edgeStyle=elbowEdgeStyle;elbow=vertical;rounded=0;" edge="1" parent="oDTV-TboAkDGDWzcCkDT-1" source="oDTV-TboAkDGDWzcCkDT-3" target="oDTV-TboAkDGDWzcCkDT-10">
          <mxGeometry relative="1" as="geometry" />
        </mxCell>
        <UserObject label="&lt;div&gt;Creative Services&lt;/div&gt;" name="Tessa Miller" position="CFO" location="Office 1" email="me@example.com" placeholders="1" link="https://www.draw.io" id="_TsJ4yo5myPTsE6mLfSC-15">
          <mxCell style="label;image=https://cdn3.iconfinder.com/data/icons/user-avatars-1/512/users-3-128.png;whiteSpace=wrap;html=1;rounded=0;glass=0;treeMoving=1;treeFolding=1;" vertex="1" parent="oDTV-TboAkDGDWzcCkDT-1">
            <mxGeometry x="4150" y="255" width="180" height="70" as="geometry" />
          </mxCell>
        </UserObject>
        <mxCell id="_TsJ4yo5myPTsE6mLfSC-14" value="" style="edgeStyle=orthogonalEdgeStyle;rounded=0;orthogonalLoop=1;jettySize=auto;html=1;" edge="1" source="oDTV-TboAkDGDWzcCkDT-3" target="_TsJ4yo5myPTsE6mLfSC-15" parent="oDTV-TboAkDGDWzcCkDT-1">
          <mxGeometry relative="1" as="geometry" />
        </mxCell>
        <UserObject label="&lt;div&gt;Sales and Channel&lt;/div&gt;" name="Tessa Miller" position="CFO" location="Office 1" email="me@example.com" placeholders="1" link="https://www.draw.io" id="_TsJ4yo5myPTsE6mLfSC-17">
          <mxCell style="label;image=https://cdn3.iconfinder.com/data/icons/user-avatars-1/512/users-3-128.png;whiteSpace=wrap;html=1;rounded=0;glass=0;treeMoving=1;treeFolding=1;" vertex="1" parent="oDTV-TboAkDGDWzcCkDT-1">
            <mxGeometry x="4390" y="260" width="180" height="70" as="geometry" />
          </mxCell>
        </UserObject>
        <mxCell id="_TsJ4yo5myPTsE6mLfSC-16" value="" style="edgeStyle=orthogonalEdgeStyle;rounded=0;orthogonalLoop=1;jettySize=auto;html=1;" edge="1" source="oDTV-TboAkDGDWzcCkDT-3" target="_TsJ4yo5myPTsE6mLfSC-17" parent="oDTV-TboAkDGDWzcCkDT-1">
          <mxGeometry relative="1" as="geometry" />
        </mxCell>
        <UserObject label="&lt;div&gt;International Marketing&lt;/div&gt;" name="Tessa Miller" position="CFO" location="Office 1" email="me@example.com" placeholders="1" link="https://www.draw.io" id="_TsJ4yo5myPTsE6mLfSC-19">
          <mxCell style="label;image=https://cdn3.iconfinder.com/data/icons/user-avatars-1/512/users-3-128.png;whiteSpace=wrap;html=1;rounded=0;glass=0;treeMoving=1;treeFolding=1;" vertex="1" parent="oDTV-TboAkDGDWzcCkDT-1">
            <mxGeometry x="4630" y="260" width="180" height="70" as="geometry" />
          </mxCell>
        </UserObject>
        <mxCell id="_TsJ4yo5myPTsE6mLfSC-18" value="" style="edgeStyle=orthogonalEdgeStyle;rounded=0;orthogonalLoop=1;jettySize=auto;html=1;" edge="1" source="oDTV-TboAkDGDWzcCkDT-3" target="_TsJ4yo5myPTsE6mLfSC-19" parent="oDTV-TboAkDGDWzcCkDT-1">
          <mxGeometry relative="1" as="geometry" />
        </mxCell>
        <UserObject label="&lt;div&gt;Performance Marketing&lt;/div&gt;" name="Tessa Miller" position="CFO" location="Office 1" email="me@example.com" placeholders="1" link="https://www.draw.io" id="_TsJ4yo5myPTsE6mLfSC-21">
          <mxCell style="label;image=https://cdn3.iconfinder.com/data/icons/user-avatars-1/512/users-3-128.png;whiteSpace=wrap;html=1;rounded=0;glass=0;treeMoving=1;treeFolding=1;" vertex="1" parent="oDTV-TboAkDGDWzcCkDT-1">
            <mxGeometry x="4840" y="255" width="180" height="70" as="geometry" />
          </mxCell>
        </UserObject>
        <mxCell id="_TsJ4yo5myPTsE6mLfSC-20" value="" style="edgeStyle=orthogonalEdgeStyle;rounded=0;orthogonalLoop=1;jettySize=auto;html=1;" edge="1" source="oDTV-TboAkDGDWzcCkDT-3" target="_TsJ4yo5myPTsE6mLfSC-21" parent="oDTV-TboAkDGDWzcCkDT-1">
          <mxGeometry relative="1" as="geometry" />
        </mxCell>
      </root>
    </mxGraphModel>
  </diagram>
</mxfile>
